# File created by Blade
# Date/Time:  Wed Jan 21 17:10:37 2015
# Frame Rate: 120.000 fps
#------------------------------------------------------
:FULLY-SPECIFIED
:DEGREES
284
root 19.913601 7.630053 -16.082159 -204.203876 -1.360269 -178.660345
Spine 75.405893 7.149123 3.019043
Head 16.104429 -1.196868 3.629256
LeftShoulder 2.820103 -23.517745 2.364544
LeftArm -6.054405 50.274410 -83.958625
LeftForeArm 13.286714 0.000000 8.672856
LeftHand -2.198440 -0.000000 25.517778
LeftHandThumb1 -26.253704 0.000000 33.147579
RightShoulder 1.641093 -15.037724 2.426469
RightArm 43.020522 -40.419522 38.033616
RightForeArm -32.610466 0.000000 23.686921
RightHand -14.435249 -0.000000 -13.726150
RightHandThumb1 -24.326973 -0.000000 -32.862282
LeftUpLeg -100.393829 -0.445668 -16.113058
LeftLeg 147.523806 -0.000000 -0.000000
LeftFoot -45.901125 37.964953 -13.560114
LeftToeBase 19.645275 -0.000000 -0.000000
RightUpLeg -99.413994 8.667874 22.308033
RightLeg 143.117405 -0.000000 -0.000000
RightFoot -43.848346 -39.476151 18.143995
RightToeBase 19.729939 -0.000000 -0.000000
285
root 19.874494 7.435675 -16.046549 -205.364625 -1.454116 -178.913743
Spine 75.291629 6.987597 3.220523
Head 16.783402 -1.242044 3.082622
LeftShoulder 2.644779 -23.394376 3.419548
LeftArm -7.673982 50.164922 -85.689726
LeftForeArm 14.033667 -0.000000 10.383506
LeftHand -2.385742 -0.000000 25.336989
LeftHandThumb1 -26.253704 0.000000 33.147579
RightShoulder 1.430449 -14.316461 2.146080
RightArm 41.935431 -41.861106 39.641887
RightForeArm -31.828616 0.000000 21.947068
RightHand -14.256128 -0.000000 -18.295475
RightHandThumb1 -24.326973 -0.000000 -32.862282
LeftUpLeg -100.313250 -0.506289 -16.679655
LeftLeg 147.828290 -0.000000 -0.000000
LeftFoot -45.165413 38.290914 -13.161316
LeftToeBase 19.167319 -0.000000 -0.000000
RightUpLeg -99.493501 8.385881 22.212605
RightLeg 143.518923 -0.000000 -0.000000
RightFoot -43.061269 -39.904341 17.489974
RightToeBase 19.206137 -0.000000 -0.000000
286
root 19.826623 7.246518 -16.004088 -206.425932 -1.586438 -179.199475
Spine 75.096515 6.760776 3.428652
Head 17.394079 -1.256964 2.366714
LeftShoulder 2.363680 -22.706698 4.348751
LeftArm -8.459673 50.837287 -86.520599
LeftForeArm 13.577848 -0.000000 12.538951
LeftHand -2.205548 -0.000000 24.306086
LeftHandThumb1 -26.253704 0.000000 33.147579
RightShoulder 1.280505 -13.503529 1.534430
RightArm 40.141106 -43.598939 41.858904
RightForeArm -31.823585 -0.000000 20.300427
RightHand -13.743217 -0.000000 -23.891974
RightHandThumb1 -24.326973 -0.000000 -32.862282
LeftUpLeg -100.292021 -0.623736 -17.354121
LeftLeg 148.062077 -0.000000 -0.000000
LeftFoot -44.376153 38.761361 -12.675595
LeftToeBase 18.656865 -0.000000 -0.000000
RightUpLeg -99.691615 8.061701 22.034031
RightLeg 143.894562 -0.000000 -0.000000
RightFoot -42.158409 -40.149953 16.923800
RightToeBase 18.663719 -0.000000 -0.000000
287
root 19.772654 7.072532 -15.955492 -207.399391 -1.775825 -179.412138
Spine 74.820605 6.380261 3.476268
Head 17.965335 -1.057914 1.658445
LeftShoulder 1.799903 -21.706945 5.154268
LeftArm -8.647628 51.784163 -86.669076
LeftForeArm 13.188689 -0.000000 14.800615
LeftHand -2.400654 -0.000000 23.381552
LeftHandThumb1 -26.253704 0.000000 33.147579
RightShoulder 1.169665 -13.048434 0.798202
RightArm 37.451487 -43.810747 44.998767
RightForeArm -34.103896 0.000000 19.748294
RightHand -12.919904 -0.000000 -26.873440
RightHandThumb1 -24.326973 -0.000000 -32.862282
LeftUpLeg -100.294259 -0.863620 -18.018889
LeftLeg 148.220490 -0.000000 -0.000000
LeftFoot -43.633324 39.275864 -12.238660
LeftToeBase 18.287963 -0.000000 -0.000000
RightUpLeg -99.910708 7.654559 21.816491
RightLeg 144.214224 -0.000000 -0.000000
RightFoot -41.390372 -40.247412 16.490310
RightToeBase 18.214152 -0.000000 -0.000000
288
root 19.728837 6.903785 -15.915258 -208.327615 -1.815203 -179.555108
Spine 74.524931 6.136936 3.653859
Head 18.397704 -0.926509 1.118103
LeftShoulder 1.202509 -20.614436 5.799724
LeftArm -8.558715 52.683411 -86.503755
LeftForeArm 13.146284 -0.000000 16.945809
LeftHand -2.412872 -0.000000 23.058202
LeftHandThumb1 -26.253704 0.000000 33.147579
RightShoulder 0.795471 -13.485237 0.049763
RightArm 36.149711 -43.544710 46.877033
RightForeArm -35.681957 -0.000000 19.445699
RightHand -12.223754 -0.000000 -28.995041
RightHandThumb1 -24.326973 -0.000000 -32.862282
LeftUpLeg -100.367381 -0.998322 -18.501236
LeftLeg 148.442045 -0.000000 -0.000000
LeftFoot -42.897652 39.559149 -11.835259
LeftToeBase 17.865826 -0.000000 -0.000000
RightUpLeg -100.098849 7.361319 21.809298
RightLeg 144.514609 -0.000000 -0.000000
RightFoot -40.640747 -40.390457 15.980169
RightToeBase 17.505276 -0.000000 -0.000000
289
root 19.693218 6.750674 -15.866404 -209.231354 -1.740944 -179.709116
Spine 74.304816 6.037313 3.812222
Head 18.626799 -0.756219 0.816087
LeftShoulder 0.656126 -19.781747 6.375406
LeftArm -8.636501 53.140452 -86.519448
LeftForeArm 13.465872 -0.000000 18.765467
LeftHand -2.885888 -0.000000 22.872845
LeftHandThumb1 -26.253704 0.000000 33.147579
RightShoulder 0.345241 -14.846879 -0.551774
RightArm 36.419142 -43.240193 46.819516
RightForeArm -35.189070 0.000000 20.181329
RightHand -11.485535 0.000000 -30.441273
RightHandThumb1 -24.326973 -0.000000 -32.862282
LeftUpLeg -100.447326 -0.966429 -18.905042
LeftLeg 148.618932 -0.000000 -0.000000
LeftFoot -42.102402 39.788191 -11.320960
LeftToeBase 17.728295 -0.000000 -0.000000
RightUpLeg -100.175761 7.166460 21.814114
RightLeg 144.709810 -0.000000 -0.000000
RightFoot -40.030575 -40.619630 15.474096
RightToeBase 17.548420 -0.000000 -0.000000
290
root 19.642004 6.603627 -15.821495 -210.074085 -1.793695 -179.899733
Spine 74.059183 5.902848 3.930267
Head 18.734943 -0.784105 0.625200
LeftShoulder 0.213174 -19.154326 6.799935
LeftArm -8.950267 53.503922 -86.672154
LeftForeArm 13.823368 0.000000 20.503365
LeftHand -3.253931 -0.000000 22.730817
LeftHandThumb1 -26.253704 0.000000 33.147579
RightShoulder -0.191857 -16.325274 -0.976625
RightArm 36.624913 -42.852539 46.358830
RightForeArm -34.937706 -0.000000 21.851389
RightHand -11.127565 -0.000000 -30.670552
RightHandThumb1 -24.326973 -0.000000 -32.862282
LeftUpLeg -100.492589 -1.075307 -19.374048
LeftLeg 148.764218 -0.000000 -0.000000
LeftFoot -40.969849 39.988619 -10.497144
LeftToeBase 17.271680 -0.000000 -0.000000
RightUpLeg -100.383728 6.827987 21.634645
RightLeg 144.994439 -0.000000 -0.000000
RightFoot -39.277288 -40.604711 15.004617
RightToeBase 16.868420 -0.000000 -0.000000
291
root 19.596292 6.470199 -15.768060 -210.885268 -1.830801 -180.077081
Spine 73.828025 5.814493 3.980898
Head 18.786819 -0.831320 0.592884
LeftShoulder -0.205975 -18.655267 7.208169
LeftArm -9.358843 53.612913 -86.991396
LeftForeArm 14.325210 -0.000000 21.965030
LeftHand -3.768865 -0.000000 23.064607
LeftHandThumb1 -26.253704 0.000000 33.147579
RightShoulder -0.614487 -17.488873 -1.313950
RightArm 36.432177 -42.595469 45.909777
RightForeArm -35.260762 -0.000000 23.971098
RightHand -11.123050 -0.000000 -30.203971
RightHandThumb1 -24.326973 -0.000000 -32.862282
LeftUpLeg -100.519510 -1.131727 -19.878689
LeftLeg 148.817710 -0.000000 -0.000000
LeftFoot -39.952290 40.302537 -9.913446
LeftToeBase 16.796960 -0.000000 -0.000000
RightUpLeg -100.540908 6.528835 21.411049
RightLeg 145.228446 -0.000000 -0.000000
RightFoot -38.117790 -40.654576 13.951769
RightToeBase 15.844836 -0.000000 -0.000000
292
root 19.542028 6.344150 -15.713746 -211.649961 -1.913876 -180.273655
Spine 73.527100 5.669217 3.822286
Head 18.867881 -0.744823 0.658871
LeftShoulder -0.663478 -18.127941 7.616042
LeftArm -9.731509 53.208186 -87.338351
LeftForeArm 14.958858 0.000000 23.223772
LeftHand -4.192065 0.000000 23.430752
LeftHandThumb1 -26.253704 0.000000 33.147579
RightShoulder -0.803673 -18.107634 -1.730944
RightArm 35.946624 -42.842666 45.518392
RightForeArm -35.132012 -0.000000 25.865579
RightHand -10.779967 -0.000000 -29.598894
RightHandThumb1 -24.326973 -0.000000 -32.862282
LeftUpLeg -100.548606 -1.257703 -20.460264
LeftLeg 148.801454 -0.000000 -0.000000
LeftFoot -39.027355 40.635464 -9.461926
LeftToeBase 16.468191 -0.000000 -0.000000
RightUpLeg -100.735654 6.184459 21.170555
RightLeg 145.438250 -0.000000 -0.000000
RightFoot -37.319295 -40.528273 13.514433
RightToeBase 15.120082 -0.000000 -0.000000
293
root 19.496010 6.223574 -15.658578 -212.362983 -1.951595 -180.396070
Spine 73.166699 5.514043 3.709706
Head 18.988029 -0.721012 0.680894
LeftShoulder -0.954983 -17.845352 7.975079
LeftArm -10.592181 52.336832 -88.067533
LeftForeArm 15.856559 -0.000000 24.446031
LeftHand -4.615181 -0.000000 23.830351
LeftHandThumb1 -26.253704 0.000000 33.147579
RightShoulder -0.979510 -18.570132 -2.136582
RightArm 35.919956 -43.514128 44.644256
RightForeArm -34.761135 -0.000000 27.312278
RightHand -10.571026 -0.000000 -29.293268
RightHandThumb1 -24.326973 -0.000000 -32.862282
LeftUpLeg -100.619615 -1.352775 -20.942605
LeftLeg 148.789654 -0.000000 -0.000000
LeftFoot -38.283508 40.956130 -9.105220
LeftToeBase 16.101721 -0.000000 -0.000000
RightUpLeg -100.908997 5.871390 21.005773
RightLeg 145.589060 -0.000000 -0.000000
RightFoot -36.553691 -40.480113 13.050019
RightToeBase 14.668920 -0.000000 -0.000000
294
root 19.442858 6.112215 -15.600859 -213.058811 -2.025420 -180.553501
Spine 72.793485 5.305160 3.491861
Head 19.155787 -0.613976 0.653509
LeftShoulder -1.211155 -17.514802 8.370836
LeftArm -11.283568 51.208426 -88.765330
LeftForeArm 16.651414 -0.000000 25.558969
LeftHand -5.045959 -0.000000 24.177193
LeftHandThumb1 -26.253704 0.000000 33.147579
RightShoulder -0.974125 -18.603022 -2.700189
RightArm 35.848537 -44.640484 43.898178
RightForeArm -34.460409 -0.000000 28.283524
RightHand -10.297683 -0.000000 -29.338319
RightHandThumb1 -24.326973 -0.000000 -32.862282
LeftUpLeg -100.648284 -1.470368 -21.467153
LeftLeg 148.759774 -0.000000 -0.000000
LeftFoot -37.645532 41.184783 -8.856717
LeftToeBase 15.813250 -0.000000 -0.000000
RightUpLeg -101.086750 5.527617 20.714987
RightLeg 145.731780 -0.000000 -0.000000
RightFoot -35.717002 -40.315974 12.476274
RightToeBase 13.895943 -0.000000 -0.000000
